<svg width="100" height="100" viewBox="0 0 100 100" fill="none" xmlns="http://www.w3.org/2000/svg">
<path d="M50.0195 68.0167H75.3392C77.7091 68.0167 78.9699 69.1511 78.9997 71.2698C79.0261 73.4819 77.5506 74.9967 75.2963 75C58.5727 75 41.8558 75 25.1454 75C24.0826 75 23.1056 74.8132 22.2639 74.0624C20.98 72.9247 20.7225 71.5067 21.2737 70.0019C21.8051 68.5572 22.967 68 24.5249 68C33.0275 68.0367 41.5235 68.02 50.0195 68.0167Z" fill="#464D55"/>
<path d="M50.0051 83.0581C55.3347 83.0581 60.6643 83.1643 65.9872 83.0018C68.0769 82.9387 69.9627 84.5838 69.9994 86.5208C70.0362 88.4577 68.2307 89.9967 65.917 90C55.318 90 44.7189 90 34.1199 90C31.5889 90 30.0341 88.6368 30.0007 86.4677C29.9672 84.2986 31.1843 83.0581 33.3576 83.0581C38.9079 83.0581 44.4581 83.0581 50.0051 83.0581Z" fill="#464D55"/>
<path fill-rule="evenodd" clip-rule="evenodd" d="M60.023 37.6928C63.6677 34.9434 66 30.727 66 26C66 17.7157 58.8366 11 50 11C41.1634 11 34 17.7157 34 26C34 30.727 36.3323 34.9434 39.977 37.6928C38.4754 38.5624 37.0901 39.6256 35.8579 40.8579C34.0007 42.715 32.5275 44.9198 31.5224 47.3463C30.9011 48.8464 30.4661 50.4131 30.2246 52.0112C30.2061 52.1333 30.1966 52.2538 30.1956 52.3722C30.0746 52.6684 30.0073 52.9815 30.0025 53.3046C29.983 53.7908 30.0772 54.2753 30.2795 54.7281C30.4818 55.1808 30.7878 55.5919 31.1783 55.936C31.5688 56.28 32.0356 56.5495 32.5496 56.7277C33.0635 56.9058 33.6136 56.9889 34.1655 56.9717C44.7218 57.0094 55.2782 57.0094 65.8345 56.9717C66.3864 56.9889 66.9365 56.9058 67.4505 56.7277C67.9644 56.5495 68.4312 56.28 68.8217 55.936C69.2122 55.5919 69.5182 55.1808 69.7205 54.7281C69.9228 54.2753 70.017 53.7908 69.9975 53.3046C69.994 52.9768 69.9266 52.6589 69.8043 52.3581C69.8026 52.2442 69.7931 52.1285 69.7754 52.0112C69.5339 50.4131 69.0989 48.8464 68.4776 47.3463C67.4725 44.9198 65.9993 42.715 64.1421 40.8579C62.9099 39.6256 61.5246 38.5624 60.023 37.6928ZM61.7924 50.0009C61.1499 48.4854 60.2212 47.1076 59.0568 45.9432C57.8674 44.7539 56.4555 43.8104 54.9015 43.1667C53.3475 42.5231 51.682 42.1918 50 42.1918C48.318 42.1918 46.6525 42.5231 45.0985 43.1667C43.5445 43.8104 42.1326 44.7539 40.9432 45.9432C39.7777 47.1087 38.8483 48.488 38.2058 50.0052C41.1892 49.9991 44.1744 49.9997 47.1601 50.0004C48.108 50.0007 49.0559 50.0009 50.0038 50.0009H61.7924ZM41.36 26C41.36 30.4735 45.2283 34.1 50 34.1C54.7717 34.1 58.64 30.4735 58.64 26C58.64 21.5265 54.7717 17.9 50 17.9C45.2283 17.9 41.36 21.5265 41.36 26Z" fill="#0000FF"/>
</svg>
